<svg id="Layer_1" data-name="Layer 1" xmlns="http://www.w3.org/2000/svg" viewBox="0 0 502.5 131.56"><defs><style>.cls-1{fill:#25b6c2;stroke:#f1f1f2;stroke-miterlimit:10;stroke-width:0.5px;}.cls-2{fill:#192650;}</style></defs><polygon class="cls-1" points="150.88 0.25 138.17 22.27 125.6 44.03 113.03 22.27 112.74 21.76 112.45 22.27 88.45 22.27 88.58 22.49 75.72 44.76 63.79 65.43 50.93 87.71 38.07 65.43 50.93 43.16 62.86 22.49 62.99 22.27 38.86 22.27 38.8 22.16 38.73 22.27 25.94 44.43 13.14 22.27 0.43 0.25 150.88 0.25"/><polygon class="cls-1" points="188.36 22.27 188.3 22.27 188.33 22.32 150.69 87.5 138.41 108.79 125.55 131.06 112.79 108.96 100.45 87.59 88.51 108.27 75.66 130.54 62.8 108.26 75.65 85.99 87.59 65.32 100.45 43.04 113.31 65.32 125.65 86.69 137.94 65.4 162.84 22.27 175.56 0.25 201.07 0.25 188.36 22.27"/><path class="cls-2" d="M254.14,112.21V54.52H237.23V42.78h45.23V54.52H265.6v57.69Z" transform="translate(-7.38 -5.35)"/><path class="cls-2" d="M313.52,112.21,299.88,42.78h11.79l8.55,47.71,10.4-47.71h13.7l10,48.52,8.78-48.52h11.56l-13.83,69.43H348.59L337.22,60.28,326,112.21Z" transform="translate(-7.38 -5.35)"/><path class="cls-2" d="M443,112.21H430.57l-5-15.73H402.79l-4.71,15.73H385.87L408,42.78h12.17ZM421.88,84.74,414,59l-7.71,25.77Z" transform="translate(-7.38 -5.35)"/><path class="cls-2" d="M464.7,112.21V42.78h11.18l23.3,46.36V42.78h10.7v69.43H498.33L475.41,66.93v45.28Z" transform="translate(-7.38 -5.35)"/></svg>